<?xml version="1.0" encoding="utf-8"?>
<!-- Generator: Adobe Illustrator 27.6.1, SVG Export Plug-In . SVG Version: 6.00 Build 0)  -->
<svg version="1.1" id="Layer_1" xmlns="http://www.w3.org/2000/svg" xmlns:xlink="http://www.w3.org/1999/xlink" x="0px" y="0px"
	 viewBox="0 0 24 24" style="enable-background:new 0 0 24 24;" xml:space="preserve">
<path d="M6.5,8.1c0-0.9,0.7-1.6,1.6-1.6H15V3.3C15,2.6,14.4,2,13.7,2H3.3C2.6,2,2,2.6,2,3.3L2,15l2.6-2.6h1.9V8.1z"/>
<path d="M7.3,8.7v8.8c0,0.8,0.7,1.5,1.5,1.5h10.3L22,22l0-13.3c0-0.8-0.7-1.5-1.5-1.5H8.7C7.9,7.3,7.3,7.9,7.3,8.7z M19.1,13.9h-8.8
	v-1.5h8.8V13.9z M13.2,14.6h5.9v1.5h-5.9V14.6z M10.2,10.2h8.8v1.5h-8.8V10.2z"/>
</svg>
