<svg width="679" height="149" viewBox="0 0 679 149" fill="none" xmlns="http://www.w3.org/2000/svg">
<path d="M114.767 4.05024L115.168 31.9272L105.831 26.7919L112.367 9.25215L99.1616 25.258L92.4258 25.058L114.767 4.05024ZM92.6925 45.7323C93.026 47.4662 93.1594 49.1335 93.1594 50.8008C93.1594 78.3443 35.2044 103.487 15.3304 90.3487C-4.54371 77.2105 -7.21137 16.9883 19.9988 3.18324C43.8077 -8.88787 82.0219 15.5211 91.1586 40.3303C85.023 49.1335 74.4191 63.6055 59.3468 69.1409C55.3453 70.6081 51.8773 70.4747 49.6098 68.7407C47.6091 67.2068 46.6754 64.5392 46.8755 61.0045C59.4802 52.9349 69.0171 42.5311 70.0841 35.6619C70.4843 33.1276 69.8174 30.7267 68.1501 28.9261C66.4161 27.0587 63.9485 26.125 61.4142 26.3918C48.3427 27.6589 37.0051 45.7323 36.6717 59.8708C31.3363 62.6052 27.0014 64.0724 23.8669 64.2057C22.5997 64.2724 21.7327 63.8723 21.1325 63.1387C19.8654 61.4714 19.9988 57.6033 21.5994 52.7348C23.4667 46.9327 26.6012 41.9309 29.0688 37.9294C31.4697 34.128 33.0036 31.5937 32.3367 30.0598C31.8032 28.7927 30.0025 27.7923 28.0018 27.5922C26.5345 27.4589 22.8665 27.5922 20.0655 31.7938C11.3289 44.8653 8.26106 57.2699 11.8624 65.0727C13.3296 68.2739 15.9306 70.2746 18.865 70.6081C23.8002 71.1416 30.2026 69.6744 37.3386 66.3398C37.8721 68.3406 38.7391 70.0746 39.9395 71.5418C41.5401 73.6092 44.808 75.2765 49.0096 75.8767C54.6117 76.7437 61.8811 75.7433 69.2171 71.4084C78.6206 65.873 85.7566 56.6696 90.1583 49.9338C91.092 48.4666 91.8922 47.0661 92.6925 45.7323ZM31.1363 21.1899C31.8032 21.8568 32.7369 22.257 33.7372 22.3903C34.2041 22.457 34.6709 22.457 35.1377 22.457C36.6717 22.3236 38.1389 21.6567 39.2059 20.523C40.7398 18.9224 41.4734 17.1884 41.4734 15.5878C41.4068 14.3207 40.8732 13.1869 39.8062 12.2533C37.8054 10.4526 33.9373 10.9861 31.6698 13.387C30.6027 14.5208 29.9358 15.9213 29.8691 17.3885C29.669 18.9224 30.1359 20.2562 31.1363 21.1899ZM62.8147 33.3277C62.6814 33.261 62.6147 33.1943 62.4813 33.1943C62.2145 33.1276 61.8811 33.1943 61.5476 33.3277C59.7469 33.9946 57.2127 36.5956 54.8118 40.2636C52.4109 43.9316 50.2767 48.2665 48.8095 52.6015C58.213 46.1324 63.7484 38.5963 63.6817 34.995C63.615 34.1947 63.3483 33.6611 62.8147 33.3277Z" fill="white"/>
<path d="M115.234 56.803L111.766 46.1324H113.233L114.901 51.401C115.367 52.8682 115.768 54.1354 116.034 55.4025C116.368 54.1354 116.768 52.8016 117.235 51.401L119.035 46.1324H120.503L116.701 56.803H115.234Z" fill="white"/>
<path d="M124.371 46.1324V50.6007H129.506V46.1324H130.907V56.803H129.506V51.8012H124.371V56.803H122.97V46.1324H124.371Z" fill="white"/>
<path d="M136.309 53.4018L135.175 56.7363H133.774L137.376 46.0657H139.043L142.711 56.7363H141.244L140.11 53.4018H136.309ZM139.777 52.3347L138.71 49.2669C138.51 48.6 138.309 47.9331 138.176 47.3328H138.109C137.976 47.9998 137.776 48.6 137.576 49.2669L136.509 52.3347H139.777Z" fill="white"/>
<path d="M150.18 56.803V46.1324H151.714L155.116 51.5344C155.916 52.8016 156.516 53.9353 157.05 55.0023C156.916 53.6018 156.916 52.268 156.916 50.6007V46.1324H158.183V56.803H156.783L153.382 51.401C152.648 50.2006 151.914 49.0002 151.381 47.8664H151.314C151.381 49.2002 151.448 50.4674 151.448 52.268V56.803H150.18Z" fill="white"/>
<path d="M163.586 53.4018L162.452 56.7363H161.051L164.653 46.0657H166.32L169.988 56.7363H168.454L167.32 53.4018H163.586ZM167.054 52.3347L165.986 49.2669C165.786 48.6 165.586 47.9331 165.453 47.3328H165.386C165.253 47.9998 165.053 48.6 164.853 49.2669L163.786 52.3347H167.054Z" fill="white"/>
<path d="M173.589 47.2662H170.321V46.1324H178.258V47.2662H174.99V56.803H173.589V47.2662Z" fill="white"/>
<path d="M182.126 46.1324H180.725V56.803H182.126V46.1324Z" fill="white"/>
<path d="M194.864 51.3343C194.864 55.0023 192.663 56.9364 189.929 56.9364C187.127 56.9364 185.127 54.7356 185.127 51.5344C185.127 48.1332 187.261 45.9323 190.062 45.9323C192.996 45.9323 194.864 48.1331 194.864 51.3343ZM186.594 51.5344C186.594 53.8019 187.861 55.8694 189.995 55.8694C192.196 55.8694 193.396 53.8686 193.396 51.4677C193.396 49.3336 192.263 47.1328 189.995 47.1328C187.728 47.0661 186.594 49.1335 186.594 51.5344Z" fill="white"/>
<path d="M197.932 56.803V46.1324H199.466L202.867 51.5344C203.667 52.8016 204.267 53.9353 204.801 55.0023C204.667 53.6018 204.667 52.268 204.667 50.6007V46.1324H205.935V56.803H204.534L201.133 51.401C200.399 50.2006 199.666 49.0002 199.132 47.8664H199.065C199.132 49.2002 199.199 50.4674 199.199 52.268V56.803H197.932Z" fill="white"/>
<path d="M211.337 53.4018L210.203 56.7363H208.802L212.404 46.0657H214.071L217.739 56.7363H216.272L215.138 53.4018H211.337ZM214.804 52.3347L213.804 49.2669C213.604 48.6 213.404 47.9331 213.271 47.3328H213.204C213.071 47.9998 212.87 48.6 212.67 49.2669L211.603 52.3347H214.804Z" fill="white"/>
<path d="M220.54 46.1324H221.941V55.6026H226.476V56.803H220.54V46.1324Z" fill="white"/>
<path d="M241.414 56.4029C240.881 56.6696 239.881 56.9364 238.613 56.9364C235.612 56.9364 233.345 55.0691 233.345 51.5344C233.345 48.1999 235.612 45.9323 238.947 45.9323C240.281 45.9323 241.148 46.1991 241.481 46.3992L241.148 47.5329C240.614 47.2662 239.881 47.0661 239.014 47.0661C236.546 47.0661 234.879 48.6667 234.879 51.4677C234.879 54.0687 236.413 55.736 238.947 55.736C239.814 55.736 240.614 55.5359 241.214 55.2691L241.414 56.4029Z" fill="white"/>
<path d="M249.884 51.8012H245.749V55.6026H250.351V56.803H244.349V46.1324H250.151V47.2662H245.749V50.6007H249.884V51.8012Z" fill="white"/>
<path d="M253.419 56.803V46.1324H254.953L258.354 51.5344C259.154 52.8016 259.755 53.9353 260.288 55.0023C260.155 53.6018 260.155 52.268 260.155 50.6007V46.1324H261.422V56.803H260.021L256.62 51.401C255.887 50.2006 255.153 49.0002 254.619 47.8664H254.553C254.619 49.2002 254.686 50.4674 254.686 52.268V56.803H253.419Z" fill="white"/>
<path d="M267.158 47.2662H263.89V46.1324H271.826V47.2662H268.558V56.803H267.158V47.2662Z" fill="white"/>
<path d="M279.762 51.8012H275.627V55.6026H280.229V56.803H274.227V46.1324H280.029V47.2662H275.627V50.6007H279.762V51.8012Z" fill="white"/>
<path d="M283.297 46.2658C283.964 46.1324 284.964 46.0657 285.965 46.0657C287.432 46.0657 288.365 46.3325 289.032 46.9327C289.566 47.3996 289.899 48.1332 289.899 48.9335C289.899 50.334 289.032 51.2676 287.899 51.6678V51.7345C288.699 52.0013 289.232 52.8016 289.499 53.8686C289.833 55.3358 290.099 56.4029 290.299 56.803H288.899C288.699 56.5362 288.499 55.6026 288.165 54.2687C287.832 52.8015 287.298 52.268 286.031 52.2013H284.764V56.803H283.364V46.2658H283.297ZM284.697 51.1343H286.098C287.565 51.1343 288.499 50.334 288.499 49.1335C288.499 47.733 287.498 47.1328 286.031 47.1328C285.364 47.1328 284.897 47.1995 284.697 47.2662V51.1343Z" fill="white"/>
<path d="M292.9 55.0691C293.501 55.4692 294.434 55.736 295.368 55.736C296.768 55.736 297.569 55.0024 297.569 53.9353C297.569 52.9349 296.969 52.4014 295.568 51.8012C293.834 51.2009 292.767 50.2673 292.767 48.8001C292.767 47.1328 294.167 45.9323 296.235 45.9323C297.302 45.9323 298.102 46.1991 298.569 46.4659L298.169 47.5996C297.836 47.3995 297.102 47.0661 296.168 47.0661C294.701 47.0661 294.167 47.9331 294.167 48.6667C294.167 49.667 294.834 50.1339 296.302 50.7341C298.102 51.401 299.036 52.3347 299.036 53.8686C299.036 55.5359 297.836 56.9364 295.301 56.9364C294.301 56.9364 293.167 56.6696 292.567 56.2695L292.9 55.0691Z" fill="white"/>
<path d="M306.772 46.1324H312.508V47.2662H308.173V50.8008H312.174V51.9346H308.173V56.803H306.772V46.1324Z" fill="white"/>
<path d="M324.912 51.3343C324.912 55.0023 322.711 56.9364 319.977 56.9364C317.176 56.9364 315.175 54.7356 315.175 51.5344C315.175 48.1332 317.309 45.9323 320.11 45.9323C322.978 45.9323 324.912 48.1331 324.912 51.3343ZM316.576 51.5344C316.576 53.8019 317.843 55.8694 319.977 55.8694C322.178 55.8694 323.378 53.8686 323.378 51.4677C323.378 49.3336 322.245 47.1328 319.977 47.1328C317.776 47.0661 316.576 49.1335 316.576 51.5344Z" fill="white"/>
<path d="M327.913 46.2658C328.58 46.1324 329.581 46.0657 330.581 46.0657C332.048 46.0657 332.982 46.3325 333.649 46.9327C334.182 47.3996 334.516 48.1332 334.516 48.9335C334.516 50.334 333.649 51.2676 332.515 51.6678V51.7345C333.315 52.0013 333.849 52.8016 334.116 53.8686C334.449 55.3358 334.716 56.4029 334.916 56.803H333.515C333.315 56.5362 333.115 55.6026 332.782 54.2687C332.448 52.8015 331.915 52.268 330.648 52.2013H329.381V56.803H327.98V46.2658H327.913ZM329.314 51.1343H330.714C332.182 51.1343 333.115 50.334 333.115 49.1335C333.115 47.733 332.115 47.1328 330.648 47.1328C329.981 47.1328 329.514 47.1995 329.314 47.2662V51.1343Z" fill="white"/>
<path d="M343.719 46.1324H342.319V56.803H343.719V46.1324Z" fill="white"/>
<path d="M347.387 56.803V46.1324H348.921L352.322 51.5344C353.123 52.8016 353.723 53.9353 354.256 55.0023C354.123 53.6018 354.123 52.268 354.123 50.6007V46.1324H355.39V56.803H353.99L350.588 51.401C349.855 50.2006 349.121 49.0002 348.588 47.8664H348.521C348.588 49.2002 348.654 50.4674 348.654 52.268V56.803H347.387Z" fill="white"/>
<path d="M359.058 56.803V46.1324H360.592L363.994 51.5344C364.794 52.8016 365.394 53.9353 365.928 55.0023C365.794 53.6018 365.794 52.268 365.794 50.6007V46.1324H367.061V56.803H365.661L362.26 51.401C361.526 50.2006 360.792 49.0002 360.259 47.8664H360.192C360.259 49.2002 360.326 50.4674 360.326 52.268V56.803H359.058Z" fill="white"/>
<path d="M379.866 51.3343C379.866 55.0023 377.665 56.9364 374.931 56.9364C372.13 56.9364 370.129 54.7356 370.129 51.5344C370.129 48.1332 372.263 45.9323 375.064 45.9323C377.999 45.9323 379.866 48.1331 379.866 51.3343ZM371.596 51.5344C371.596 53.8019 372.863 55.8694 374.998 55.8694C377.198 55.8694 378.399 53.8686 378.399 51.4677C378.399 49.3336 377.265 47.1328 374.998 47.1328C372.73 47.0661 371.596 49.1335 371.596 51.5344Z" fill="white"/>
<path d="M385.268 56.803L381.8 46.1324H383.267L384.935 51.401C385.402 52.8682 385.802 54.1354 386.069 55.4025C386.402 54.1354 386.802 52.8016 387.269 51.401L389.07 46.1324H390.537L386.735 56.803H385.268Z" fill="white"/>
<path d="M393.871 53.4018L392.737 56.7363H391.337L394.938 46.0657H396.606L400.274 56.7363H398.806L397.673 53.4018H393.871ZM397.339 52.3347L396.272 49.2669C396.072 48.6 395.872 47.9331 395.739 47.3328H395.672C395.538 47.9998 395.338 48.6 395.138 49.2669L394.071 52.3347H397.339Z" fill="white"/>
<path d="M403.875 47.2662H400.674V46.1324H408.543V47.2662H405.276V56.803H403.875V47.2662Z" fill="white"/>
<path d="M412.411 46.1324H411.011V56.803H412.411V46.1324Z" fill="white"/>
<path d="M425.15 51.3343C425.15 55.0023 422.949 56.9364 420.214 56.9364C417.413 56.9364 415.413 54.7356 415.413 51.5344C415.413 48.1332 417.547 45.9323 420.348 45.9323C423.282 45.9323 425.15 48.1331 425.15 51.3343ZM416.88 51.5344C416.88 53.8019 418.147 55.8694 420.281 55.8694C422.482 55.8694 423.682 53.8686 423.682 51.4677C423.682 49.3336 422.549 47.1328 420.281 47.1328C418.014 47.0661 416.88 49.1335 416.88 51.5344Z" fill="white"/>
<path d="M428.218 56.803V46.1324H429.751L433.153 51.5344C433.953 52.8016 434.553 53.9353 435.087 55.0023C434.953 53.6018 434.953 52.268 434.953 50.6007V46.1324H436.221V56.803H434.82L431.419 51.401C430.685 50.2006 429.952 49.0002 429.418 47.8664H429.351C429.418 49.2002 429.485 50.4674 429.485 52.268V56.803H428.218Z" fill="white"/>
<path d="M445.891 47.2662H442.689V46.1324H450.559V47.2662H447.291V56.803H445.891V47.2662Z" fill="white"/>
<path d="M461.697 51.3343C461.697 55.0023 459.496 56.9364 456.762 56.9364C453.96 56.9364 451.96 54.7356 451.96 51.5344C451.96 48.1332 454.094 45.9323 456.895 45.9323C459.829 45.9323 461.697 48.1331 461.697 51.3343ZM453.427 51.5344C453.427 53.8019 454.694 55.8694 456.828 55.8694C459.029 55.8694 460.229 53.8686 460.229 51.4677C460.229 49.3336 459.096 47.1328 456.828 47.1328C454.561 47.0661 453.427 49.1335 453.427 51.5344Z" fill="white"/>
<path d="M470.767 46.1324H469.366V56.803H470.767V46.1324Z" fill="white"/>
<path d="M483.438 52.0679C483.371 50.6007 483.238 48.8001 483.305 47.4662H483.238C482.838 48.7334 482.438 50.0672 481.904 51.5344L480.037 56.7363H478.97L477.236 51.6678C476.702 50.1339 476.302 48.8001 475.969 47.533C475.902 48.8668 475.835 50.6674 475.769 52.268L475.502 56.8697H474.168L474.902 46.1991H476.636L478.436 51.3343C478.903 52.6681 479.237 53.8019 479.503 54.9357H479.57C479.837 53.8686 480.237 52.6681 480.704 51.3343L482.571 46.1991H484.305L484.972 56.8697H483.638L483.438 52.0679Z" fill="white"/>
<path d="M488.44 46.1991C489.107 46.0657 489.974 45.999 491.108 45.999C492.441 45.999 493.442 46.3325 494.109 46.866C494.709 47.3996 495.042 48.1332 495.042 49.0668C495.042 50.0672 494.776 50.8008 494.242 51.3343C493.509 52.1346 492.308 52.5348 490.974 52.5348C490.574 52.5348 490.174 52.5348 489.84 52.4681V56.7363H488.44V46.1991ZM489.84 51.401C490.174 51.4677 490.507 51.5344 490.974 51.5344C492.641 51.5344 493.642 50.7341 493.642 49.2669C493.642 47.8664 492.642 47.1995 491.108 47.1995C490.507 47.1995 490.041 47.2662 489.84 47.3328V51.401Z" fill="white"/>
<path d="M498.51 53.4018L497.377 56.7363H495.976L499.577 46.0657H501.245L504.913 56.7363H503.446L502.312 53.4018H498.51ZM502.045 52.3347L500.978 49.2669C500.711 48.6 500.578 47.9331 500.444 47.3328H500.378C500.244 47.9998 500.044 48.6 499.844 49.2669L498.777 52.3347H502.045Z" fill="white"/>
<path d="M514.983 56.4029C514.45 56.6696 513.449 56.9364 512.182 56.9364C509.181 56.9364 506.914 55.0691 506.914 51.5344C506.914 48.1999 509.181 45.9323 512.516 45.9323C513.85 45.9323 514.716 46.1991 515.05 46.3992L514.716 47.5329C514.183 47.2662 513.449 47.0661 512.582 47.0661C510.115 47.0661 508.447 48.6667 508.447 51.4677C508.447 54.0687 509.981 55.736 512.516 55.736C513.383 55.736 514.183 55.5359 514.783 55.2691L514.983 56.4029Z" fill="white"/>
<path d="M520.452 47.2662H517.184V46.1324H525.054V47.2662H521.852V56.803H520.452V47.2662Z" fill="white"/>
<path d="M114.567 92.5495V65.2728H120.236L127.305 76.9438C129.106 80.0116 130.707 83.1461 131.974 86.0805H132.041C131.707 82.4125 131.574 78.9445 131.574 74.743V65.2728H136.175V92.5495H131.04L123.904 80.5451C122.17 77.544 120.37 74.2094 119.036 71.1416L118.902 71.2083C119.102 74.743 119.169 78.3443 119.169 82.8126V92.5495H114.567Z" fill="white"/>
<path d="M152.648 92.5495L152.315 90.3487H152.181C150.981 91.8826 148.913 92.9497 146.379 92.9497C142.444 92.9497 140.177 90.082 140.177 87.0809C140.177 82.079 144.578 79.6114 151.848 79.6114V79.278C151.848 78.0108 151.314 75.81 147.846 75.81C145.912 75.81 143.911 76.4102 142.578 77.2772L141.577 74.0093C143.044 73.1424 145.579 72.2754 148.713 72.2754C155.049 72.2754 156.85 76.2769 156.85 80.5451V87.6811C156.85 89.4817 156.916 91.2157 157.116 92.4162H152.648V92.5495ZM151.981 82.946C148.446 82.8793 145.112 83.6129 145.112 86.614C145.112 88.5481 146.379 89.415 147.913 89.415C149.914 89.415 151.381 88.1479 151.781 86.6807C151.914 86.2805 151.914 85.8804 151.914 85.6136V82.946H151.981Z" fill="white"/>
<path d="M167.387 67.2069V72.8089H172.122V76.5437H167.387V85.2135C167.387 87.6144 168.054 88.8815 169.921 88.8815C170.788 88.8815 171.388 88.7481 171.855 88.6147L171.922 92.4162C171.188 92.6829 169.921 92.883 168.32 92.883C166.52 92.883 164.986 92.2828 164.052 91.2824C162.985 90.1486 162.518 88.348 162.518 85.8137V76.6103H159.717V72.8756H162.518V68.4073L167.387 67.2069Z" fill="white"/>
<path d="M180.992 67.3402C180.992 68.8074 179.925 70.0079 178.191 70.0079C176.524 70.0079 175.457 68.8074 175.457 67.3402C175.457 65.8063 176.59 64.6059 178.258 64.6059C179.925 64.6726 180.992 65.8063 180.992 67.3402ZM175.723 72.8756H180.725V92.5495H175.723V72.8756Z" fill="white"/>
<path d="M204.667 82.5458C204.667 89.8152 199.599 93.0163 194.53 93.0163C188.928 93.0163 184.66 89.1483 184.66 82.8793C184.66 76.4102 188.928 72.4754 194.864 72.4754C200.733 72.4087 204.667 76.5436 204.667 82.5458ZM189.795 82.7459C189.795 86.5473 191.663 89.415 194.664 89.415C197.465 89.415 199.465 86.614 199.465 82.6792C199.465 79.6114 198.065 76.0768 194.664 76.0768C191.196 76.0768 189.795 79.478 189.795 82.7459Z" fill="white"/>
<path d="M208.602 78.7445C208.602 76.4769 208.535 74.6096 208.469 72.8756H212.87L213.137 75.81H213.271C214.138 74.2761 216.272 72.4088 219.54 72.4088C223.008 72.4088 226.542 74.6096 226.542 80.8786V92.5496H221.54V81.4121C221.54 78.6111 220.473 76.4103 217.806 76.4103C215.805 76.4103 214.471 77.8108 213.937 79.3446C213.804 79.8115 213.737 80.4117 213.737 80.9453V92.4828H208.736V78.7445H208.602Z" fill="white"/>
<path d="M242.615 92.5495L242.281 90.3487H242.148C240.948 91.8826 238.88 92.9497 236.346 92.9497C232.411 92.9497 230.144 90.082 230.144 87.0809C230.144 82.079 234.545 79.6114 241.815 79.6114V79.278C241.815 78.0108 241.281 75.81 237.813 75.81C235.879 75.81 233.878 76.4102 232.544 77.2772L231.544 74.0093C233.011 73.1424 235.546 72.2754 238.68 72.2754C245.016 72.2754 246.816 76.2769 246.816 80.5451V87.6811C246.816 89.4817 246.883 91.2157 247.083 92.4162H242.615V92.5495ZM242.015 82.946C238.48 82.8793 235.145 83.6129 235.145 86.614C235.145 88.5481 236.413 89.415 237.946 89.415C239.947 89.415 241.414 88.1479 241.815 86.6807C241.948 86.2805 241.948 85.8804 241.948 85.6136V82.946H242.015Z" fill="white"/>
<path d="M256.954 63.8056H251.952V92.5496H256.954V63.8056Z" fill="white"/>
<path d="M290.099 91.7493C288.899 92.3495 286.365 92.9497 283.03 92.9497C274.36 92.9497 269.092 87.5477 269.092 79.2113C269.092 70.208 275.294 64.806 283.63 64.806C286.898 64.806 289.232 65.4729 290.299 66.0064L289.232 69.9412C287.965 69.4077 286.165 68.8742 283.897 68.8742C278.362 68.8742 274.36 72.3421 274.36 78.8778C274.36 84.8801 277.895 88.6814 283.897 88.6814C285.898 88.6814 288.032 88.2813 289.299 87.6811L290.099 91.7493Z" fill="white"/>
<path d="M296.902 84.0798C297.035 87.6144 299.836 89.1483 302.971 89.1483C305.305 89.1483 306.906 88.8148 308.439 88.2813L309.173 91.7492C307.439 92.4162 305.105 92.9497 302.304 92.9497C295.901 92.9497 292.167 89.0149 292.167 83.0127C292.167 77.544 295.501 72.4088 301.77 72.4088C308.173 72.4088 310.24 77.6774 310.24 82.0123C310.24 82.946 310.173 83.6796 310.107 84.1464H296.902V84.0798ZM305.572 80.6118C305.638 78.8111 304.771 75.81 301.504 75.81C298.436 75.81 297.102 78.6111 296.902 80.6118H305.572Z" fill="white"/>
<path d="M314.108 78.7445C314.108 76.4769 314.042 74.6096 313.975 72.8756H318.376L318.643 75.81H318.777C319.644 74.2761 321.778 72.4088 325.046 72.4088C328.514 72.4088 332.048 74.6096 332.048 80.8786V92.5496H327.046V81.4121C327.046 78.6111 325.979 76.4103 323.312 76.4103C321.311 76.4103 319.977 77.8108 319.444 79.3446C319.31 79.8115 319.243 80.4117 319.243 80.9453V92.4828H314.242V78.7445H314.108Z" fill="white"/>
<path d="M342.586 67.2069V72.8089H347.321V76.5437H342.586V85.2135C342.586 87.6144 343.252 88.8815 345.12 88.8815C345.987 88.8815 346.587 88.7481 347.054 88.6147L347.121 92.4162C346.387 92.6829 345.12 92.883 343.519 92.883C341.719 92.883 340.185 92.2828 339.251 91.2824C338.184 90.1486 337.717 88.348 337.717 85.8137V76.6103H334.916V72.8756H337.717V68.4073L342.586 67.2069Z" fill="white"/>
<path d="M354.19 84.0798C354.323 87.6144 357.124 89.1483 360.259 89.1483C362.593 89.1483 364.194 88.8148 365.728 88.2813L366.461 91.7492C364.727 92.4162 362.393 92.9497 359.592 92.9497C353.19 92.9497 349.455 89.0149 349.455 83.0127C349.455 77.544 352.789 72.4088 359.058 72.4088C365.461 72.4088 367.528 77.6774 367.528 82.0123C367.528 82.946 367.462 83.6796 367.395 84.1464H354.19V84.0798ZM362.86 80.6118C362.927 78.8111 362.06 75.81 358.792 75.81C355.724 75.81 354.39 78.6111 354.19 80.6118H362.86Z" fill="white"/>
<path d="M371.396 79.2113C371.396 76.5436 371.33 74.6096 371.263 72.8756H375.598L375.731 76.6103H375.865C376.865 73.8093 379.133 72.4088 381.267 72.4088C381.733 72.4088 382.067 72.4755 382.467 72.5422V77.2106C382.067 77.1439 381.6 77.0772 381 77.0772C378.599 77.0772 376.998 78.6111 376.532 80.8119C376.465 81.2787 376.398 81.8122 376.398 82.3458V92.5496H371.396V79.2113Z" fill="white"/>
<path d="M394.405 92.5495V76.5436H391.737V72.8089H394.405V71.9419C394.405 69.4077 395.072 66.8734 396.806 65.2061C398.273 63.8056 400.274 63.2721 401.941 63.2721C403.275 63.2721 404.342 63.4721 405.142 63.7389L404.809 67.607C404.275 67.4069 403.608 67.2735 402.675 67.2735C400.207 67.2735 399.34 69.341 399.34 71.7419V72.7422H403.675V76.4769H399.407V92.4828H394.405V92.5495Z" fill="white"/>
<path d="M424.816 82.5458C424.816 89.8152 419.748 93.0163 414.679 93.0163C409.077 93.0163 404.809 89.1483 404.809 82.8793C404.809 76.4102 409.077 72.4754 415.013 72.4754C420.948 72.4087 424.816 76.5436 424.816 82.5458ZM410.011 82.7459C410.011 86.5473 411.878 89.415 414.879 89.415C417.68 89.415 419.681 86.614 419.681 82.6792C419.681 79.6114 418.281 76.0768 414.879 76.0768C411.411 76.0768 410.011 79.478 410.011 82.7459Z" fill="white"/>
<path d="M428.751 79.2113C428.751 76.5436 428.684 74.6096 428.618 72.8756H432.953L433.086 76.6103H433.219C434.22 73.8093 436.487 72.4088 438.621 72.4088C439.088 72.4088 439.422 72.4755 439.822 72.5422V77.2106C439.422 77.1439 438.955 77.0772 438.355 77.0772C435.954 77.0772 434.353 78.6111 433.886 80.8119C433.82 81.2787 433.753 81.8122 433.753 82.3458V92.5496H428.751V79.2113Z" fill="white"/>
<path d="M470.967 91.7493C469.766 92.3495 467.232 92.9497 463.898 92.9497C455.228 92.9497 449.959 87.5477 449.959 79.2113C449.959 70.208 456.161 64.806 464.498 64.806C467.766 64.806 470.1 65.4729 471.167 66.0064L470.1 69.9412C468.833 69.4077 467.032 68.8742 464.765 68.8742C459.229 68.8742 455.228 72.3421 455.228 78.8778C455.228 84.8801 458.762 88.6814 464.765 88.6814C466.765 88.6814 468.899 88.2813 470.167 87.6811L470.967 91.7493Z" fill="white"/>
<path d="M492.908 82.5458C492.908 89.8152 487.84 93.0163 482.771 93.0163C477.169 93.0163 472.901 89.1483 472.901 82.8793C472.901 76.4102 477.169 72.4754 483.105 72.4754C489.04 72.4087 492.908 76.5436 492.908 82.5458ZM478.103 82.7459C478.103 86.5473 479.97 89.415 482.971 89.415C485.772 89.415 487.773 86.614 487.773 82.6792C487.773 79.6114 486.373 76.0768 482.971 76.0768C479.503 76.0768 478.103 79.478 478.103 82.7459Z" fill="white"/>
<path d="M501.845 63.8056H496.843V92.5496H501.845V63.8056Z" fill="white"/>
<path d="M512.115 63.8056H507.114V92.5496H512.115V63.8056Z" fill="white"/>
<path d="M528.388 92.5495L528.055 90.3487H527.921C526.721 91.8826 524.653 92.9497 522.119 92.9497C518.184 92.9497 515.917 90.082 515.917 87.0809C515.917 82.079 520.318 79.6114 527.588 79.6114V79.278C527.588 78.0108 527.054 75.81 523.586 75.81C521.652 75.81 519.651 76.4102 518.318 77.2772L517.317 74.0093C518.784 73.1424 521.319 72.2754 524.453 72.2754C530.789 72.2754 532.59 76.2769 532.59 80.5451V87.6811C532.59 89.4817 532.656 91.2157 532.856 92.4162H528.388V92.5495ZM527.788 82.946C524.253 82.8793 520.919 83.6129 520.919 86.614C520.919 88.5481 522.186 89.415 523.72 89.415C525.72 89.415 527.188 88.1479 527.588 86.6807C527.721 86.2805 527.721 85.8804 527.721 85.6136V82.946H527.788Z" fill="white"/>
<path d="M537.525 92.5496C537.592 91.2157 537.658 89.0149 537.658 87.0142V63.8056H542.66V75.5433H542.727C543.927 73.6092 546.061 72.4088 549.063 72.4088C553.864 72.4088 557.332 76.4103 557.266 82.4125C557.266 89.4818 552.797 93.0164 548.329 93.0164C545.795 93.0164 543.527 92.016 542.127 89.6151H542.06L541.793 92.5496H537.525ZM542.66 84.4132C542.66 84.8134 542.727 85.2135 542.794 85.6136C543.327 87.6144 545.061 89.0816 547.195 89.0816C550.33 89.0816 552.197 86.5473 552.197 82.6125C552.197 79.1446 550.53 76.2769 547.195 76.2769C545.194 76.2769 543.327 77.7441 542.794 79.9449C542.727 80.2783 542.66 80.7452 542.66 81.212V84.4132Z" fill="white"/>
<path d="M579.941 82.5458C579.941 89.8152 574.872 93.0163 569.803 93.0163C564.201 93.0163 559.933 89.1483 559.933 82.8793C559.933 76.4102 564.201 72.4754 570.137 72.4754C576.006 72.4087 579.941 76.5436 579.941 82.5458ZM565.135 82.7459C565.135 86.5473 567.002 89.415 570.004 89.415C572.805 89.415 574.805 86.614 574.805 82.6792C574.805 79.6114 573.405 76.0768 570.004 76.0768C566.536 76.0768 565.135 79.478 565.135 82.7459Z" fill="white"/>
<path d="M583.876 79.2113C583.876 76.5436 583.809 74.6096 583.742 72.8756H588.077L588.211 76.6103H588.344C589.344 73.8093 591.612 72.4088 593.746 72.4088C594.213 72.4088 594.546 72.4755 594.946 72.5422V77.2106C594.546 77.1439 594.079 77.0772 593.479 77.0772C591.078 77.0772 589.478 78.6111 589.011 80.8119C588.944 81.2787 588.877 81.8122 588.877 82.3458V92.5496H583.876V79.2113Z" fill="white"/>
<path d="M608.818 92.5495L608.485 90.3487H608.351C607.151 91.8826 605.083 92.9497 602.549 92.9497C598.614 92.9497 596.347 90.082 596.347 87.0809C596.347 82.079 600.748 79.6114 608.018 79.6114V79.278C608.018 78.0108 607.484 75.81 604.016 75.81C602.082 75.81 600.081 76.4102 598.748 77.2772L597.747 74.0093C599.214 73.1424 601.749 72.2754 604.883 72.2754C611.219 72.2754 613.02 76.2769 613.02 80.5451V87.6811C613.02 89.4817 613.086 91.2157 613.286 92.4162H608.818V92.5495ZM608.218 82.946C604.683 82.8793 601.349 83.6129 601.349 86.614C601.349 88.5481 602.616 89.415 604.15 89.415C606.15 89.415 607.618 88.1479 608.018 86.6807C608.151 86.2805 608.151 85.8804 608.151 85.6136V82.946H608.218Z" fill="white"/>
<path d="M623.624 67.2069V72.8089H628.359V76.5437H623.624V85.2135C623.624 87.6144 624.291 88.8815 626.158 88.8815C627.025 88.8815 627.625 88.7481 628.092 88.6147L628.159 92.4162C627.425 92.6829 626.158 92.883 624.557 92.883C622.757 92.883 621.223 92.2828 620.289 91.2824C619.222 90.1486 618.755 88.348 618.755 85.8137V76.6103H615.954V72.8756H618.755V68.4073L623.624 67.2069Z" fill="white"/>
<path d="M637.229 67.3402C637.229 68.8074 636.162 70.0079 634.428 70.0079C632.76 70.0079 631.693 68.8074 631.693 67.3402C631.693 65.8063 632.827 64.6059 634.494 64.6059C636.162 64.6726 637.229 65.8063 637.229 67.3402ZM631.96 72.8756H636.962V92.5495H631.96V72.8756Z" fill="white"/>
<path d="M645.298 72.8756L648.5 82.8793C649.033 84.6133 649.5 86.2138 649.833 87.8144H649.967C650.3 86.2138 650.767 84.68 651.301 82.8793L654.435 72.8756H659.704L652.168 92.5495H647.299L639.963 72.8756H645.298Z" fill="white"/>
<path d="M665.506 84.0798C665.639 87.6144 668.44 89.1483 671.575 89.1483C673.909 89.1483 675.51 88.8148 677.044 88.2813L677.777 91.7492C676.043 92.4162 673.709 92.9497 670.908 92.9497C664.506 92.9497 660.771 89.0149 660.771 83.0127C660.771 77.544 664.105 72.4088 670.374 72.4088C676.777 72.4088 678.844 77.6774 678.844 82.0123C678.844 82.946 678.777 83.6796 678.711 84.1464H665.506V84.0798ZM674.176 80.6118C674.243 78.8111 673.375 75.81 670.108 75.81C667.04 75.81 665.706 78.6111 665.506 80.6118H674.176Z" fill="white"/>
<path d="M119.503 101.086V112.023H131.04V101.086H136.042V128.363H131.04V116.358H119.503V128.363H114.567V101.086H119.503Z" fill="white"/>
<path d="M144.912 119.893C145.045 123.428 147.846 124.961 150.981 124.961C153.315 124.961 154.916 124.628 156.449 124.094L157.183 127.562C155.449 128.229 153.115 128.763 150.314 128.763C143.911 128.763 140.177 124.828 140.177 118.826C140.177 113.357 143.511 108.222 149.78 108.222C156.183 108.222 158.25 113.491 158.25 117.825C158.25 118.759 158.183 119.493 158.117 119.96H144.912V119.893ZM153.582 116.425C153.648 114.624 152.781 111.623 149.514 111.623C146.446 111.623 145.112 114.424 144.912 116.425H153.582Z" fill="white"/>
<path d="M173.189 128.363L172.856 126.162H172.722C171.522 127.696 169.454 128.763 166.92 128.763C162.985 128.763 160.718 125.895 160.718 122.894C160.718 117.892 165.119 115.425 172.389 115.425V115.091C172.389 113.824 171.855 111.623 168.387 111.623C166.453 111.623 164.453 112.223 163.119 113.09L162.118 109.823C163.586 108.956 166.12 108.089 169.254 108.089C175.59 108.089 177.391 112.09 177.391 116.358V123.494C177.391 125.295 177.457 127.029 177.657 128.229H173.189V128.363ZM172.522 118.692C168.988 118.626 165.653 119.359 165.653 122.36C165.653 124.295 166.92 125.162 168.454 125.162C170.455 125.162 171.922 123.894 172.322 122.427C172.455 122.027 172.455 121.627 172.455 121.36V118.692H172.522Z" fill="white"/>
<path d="M187.461 99.6188H182.459V128.363H187.461V99.6188Z" fill="white"/>
<path d="M198.399 103.02V108.622H203.134V112.357H198.399V121.027C198.399 123.428 199.065 124.695 200.933 124.695C201.8 124.695 202.4 124.561 202.867 124.428L202.934 128.229C202.2 128.496 200.933 128.696 199.332 128.696C197.532 128.696 195.998 128.096 195.064 127.096C193.997 125.962 193.53 124.161 193.53 121.627V112.357H190.729V108.622H193.53V104.154L198.399 103.02Z" fill="white"/>
<path d="M206.735 99.6188H211.737V111.356H211.803C212.404 110.423 213.204 109.689 214.271 109.089C215.271 108.555 216.405 108.222 217.672 108.222C221.007 108.222 224.542 110.423 224.542 116.758V128.363H219.54V117.292C219.54 114.424 218.473 112.29 215.738 112.29C213.804 112.29 212.404 113.557 211.87 115.091C211.737 115.491 211.67 116.025 211.67 116.558V128.363H206.668V99.6188H206.735Z" fill="white"/>
<path d="M244.216 127.763C243.148 128.229 241.081 128.763 238.613 128.763C232.478 128.763 228.476 124.828 228.476 118.759C228.476 112.824 232.544 108.222 239.414 108.222C241.214 108.222 243.082 108.622 244.216 109.156L243.349 112.89C242.548 112.49 241.348 112.09 239.614 112.09C235.812 112.09 233.545 114.891 233.612 118.492C233.612 122.561 236.213 124.828 239.614 124.828C241.348 124.828 242.548 124.428 243.549 124.028L244.216 127.763Z" fill="white"/>
<path d="M258.821 128.363L258.487 126.162H258.354C257.154 127.696 255.086 128.763 252.552 128.763C248.617 128.763 246.35 125.895 246.35 122.894C246.35 117.892 250.751 115.425 258.021 115.425V115.091C258.021 113.824 257.487 111.623 254.019 111.623C252.085 111.623 250.084 112.223 248.751 113.09L247.75 109.823C249.217 108.956 251.752 108.089 254.886 108.089C261.222 108.089 263.023 112.09 263.023 116.358V123.494C263.023 125.295 263.089 127.029 263.289 128.229H258.821V128.363ZM258.154 118.692C254.619 118.626 251.285 119.359 251.285 122.36C251.285 124.295 252.552 125.162 254.086 125.162C256.087 125.162 257.554 123.894 257.954 122.427C258.087 122.027 258.087 121.627 258.087 121.36V118.692H258.154Z" fill="white"/>
<path d="M268.091 115.024C268.091 112.357 268.024 110.423 267.958 108.689H272.293L272.426 112.424H272.559C273.56 109.622 275.827 108.222 277.961 108.222C278.428 108.222 278.762 108.289 279.162 108.355V113.024C278.762 112.957 278.295 112.89 277.695 112.89C275.294 112.89 273.693 114.424 273.226 116.625C273.16 117.092 273.093 117.625 273.093 118.159V128.363H268.091V115.024Z" fill="white"/>
<path d="M285.498 119.893C285.631 123.428 288.432 124.961 291.566 124.961C293.901 124.961 295.501 124.628 297.035 124.094L297.769 127.562C296.035 128.229 293.701 128.763 290.9 128.763C284.497 128.763 280.762 124.828 280.762 118.826C280.762 113.357 284.097 108.222 290.366 108.222C296.768 108.222 298.836 113.491 298.836 117.825C298.836 118.759 298.769 119.493 298.702 119.96H285.498V119.893ZM294.167 116.425C294.234 114.624 293.367 111.623 290.099 111.623C287.031 111.623 285.698 114.424 285.498 116.425H294.167Z" fill="white"/>
<path d="M316.109 101.086H311.107V128.363H316.109V101.086Z" fill="white"/>
<path d="M321.711 114.491C321.711 112.223 321.644 110.356 321.578 108.622H325.979L326.246 111.557H326.379C327.246 110.023 329.381 108.155 332.648 108.155C336.116 108.155 339.651 110.356 339.651 116.625V128.296H334.649V117.159C334.649 114.358 333.582 112.157 330.914 112.157C328.914 112.157 327.58 113.557 327.046 115.091C326.913 115.558 326.846 116.158 326.846 116.692V128.229H321.844V114.491H321.711Z" fill="white"/>
<path d="M344.653 114.491C344.653 112.223 344.586 110.356 344.52 108.622H348.921L349.188 111.557H349.321C350.188 110.023 352.322 108.155 355.59 108.155C359.058 108.155 362.593 110.356 362.593 116.625V128.296H357.591V117.159C357.591 114.358 356.524 112.157 353.856 112.157C351.856 112.157 350.522 113.557 349.988 115.091C349.855 115.558 349.788 116.158 349.788 116.692V128.229H344.786V114.491H344.653Z" fill="white"/>
<path d="M386.402 118.292C386.402 125.562 381.333 128.763 376.265 128.763C370.663 128.763 366.395 124.895 366.395 118.626C366.395 112.157 370.663 108.222 376.598 108.222C382.467 108.222 386.402 112.357 386.402 118.292ZM371.53 118.492C371.53 122.294 373.397 125.162 376.398 125.162C379.199 125.162 381.2 122.361 381.2 118.426C381.2 115.358 379.8 111.823 376.398 111.823C372.93 111.823 371.53 115.225 371.53 118.492Z" fill="white"/>
<path d="M393.138 108.622L396.339 118.626C396.873 120.36 397.339 121.96 397.673 123.561H397.806C398.14 121.96 398.607 120.426 399.14 118.626L402.275 108.622H407.543L400.007 128.296H395.139L387.802 108.622H393.138Z" fill="white"/>
<path d="M421.215 128.363L420.882 126.162H420.748C419.548 127.696 417.48 128.763 414.946 128.763C411.011 128.763 408.744 125.895 408.744 122.894C408.744 117.892 413.145 115.425 420.415 115.425V115.091C420.415 113.824 419.881 111.623 416.413 111.623C414.479 111.623 412.478 112.223 411.145 113.09L410.144 109.823C411.611 108.956 414.146 108.089 417.28 108.089C423.616 108.089 425.417 112.09 425.417 116.358V123.494C425.417 125.295 425.483 127.029 425.683 128.229H421.215V128.363ZM420.548 118.692C417.013 118.626 413.679 119.359 413.679 122.36C413.679 124.295 414.946 125.162 416.48 125.162C418.481 125.162 419.948 123.894 420.348 122.427C420.481 122.027 420.481 121.627 420.481 121.36V118.692H420.548Z" fill="white"/>
<path d="M435.954 103.02V108.622H440.689V112.357H435.954V121.027C435.954 123.428 436.621 124.695 438.488 124.695C439.355 124.695 439.955 124.561 440.422 124.428L440.489 128.229C439.755 128.496 438.488 128.696 436.887 128.696C435.087 128.696 433.553 128.096 432.619 127.096C431.552 125.962 431.085 124.161 431.085 121.627V112.357H428.284V108.622H431.085V104.154L435.954 103.02Z" fill="white"/>
<path d="M449.625 103.153C449.625 104.621 448.558 105.821 446.824 105.821C445.157 105.821 444.09 104.621 444.09 103.153C444.09 101.62 445.224 100.419 446.891 100.419C448.492 100.419 449.559 101.62 449.625 103.153ZM444.29 108.622H449.292V128.296H444.29V108.622Z" fill="white"/>
<path d="M473.234 118.292C473.234 125.562 468.166 128.763 463.097 128.763C457.495 128.763 453.227 124.895 453.227 118.626C453.227 112.157 457.495 108.222 463.431 108.222C469.299 108.222 473.234 112.357 473.234 118.292ZM458.362 118.492C458.362 122.294 460.229 125.162 463.231 125.162C466.032 125.162 468.032 122.361 468.032 118.426C468.032 115.358 466.632 111.823 463.231 111.823C459.829 111.823 458.362 115.225 458.362 118.492Z" fill="white"/>
<path d="M477.169 114.491C477.169 112.223 477.102 110.356 477.036 108.622H481.437L481.704 111.557H481.837C482.704 110.023 484.839 108.155 488.106 108.155C491.574 108.155 495.109 110.356 495.109 116.625V128.296H490.107V117.159C490.107 114.358 489.04 112.157 486.372 112.157C484.372 112.157 483.038 113.557 482.504 115.091C482.371 115.558 482.304 116.158 482.304 116.692V128.229H477.302V114.491H477.169Z" fill="white"/>
<path d="M133.174 147.37L129.706 136.699H131.173L132.841 141.968C133.307 143.435 133.708 144.702 133.974 145.969C134.308 144.702 134.708 143.368 135.175 141.968L136.975 136.699H138.443L134.641 147.37H133.174Z" fill="white"/>
<path d="M141.711 143.968L140.577 147.303H139.176L142.778 136.632H144.445L148.113 147.303H146.646L145.512 143.968H141.711ZM145.245 142.901L144.178 139.834C143.978 139.167 143.778 138.5 143.645 137.9H143.578C143.445 138.567 143.244 139.167 143.044 139.834L141.977 142.901H145.245Z" fill="white"/>
<path d="M155.583 136.833C156.249 136.699 157.116 136.632 158.25 136.632C159.584 136.632 160.584 136.966 161.251 137.499C161.852 138.033 162.185 138.767 162.185 139.7C162.185 140.701 161.918 141.434 161.385 141.968C160.651 142.768 159.451 143.168 158.117 143.168C157.717 143.168 157.316 143.168 156.983 143.102V147.37H155.583V136.833ZM156.983 141.968C157.316 142.034 157.65 142.101 158.117 142.101C159.784 142.101 160.784 141.301 160.784 139.834C160.784 138.433 159.784 137.766 158.25 137.766C157.65 137.766 157.183 137.833 156.983 137.9V141.968Z" fill="white"/>
<path d="M165.653 143.968L164.519 147.303H163.119L166.72 136.632H168.387L172.055 147.303H170.588L169.454 143.968H165.653ZM169.188 142.901L168.121 139.834C167.92 139.167 167.72 138.5 167.587 137.9H167.52C167.387 138.567 167.187 139.167 166.987 139.834L165.92 142.901H169.188Z" fill="white"/>
<path d="M174.923 136.699H176.257V146.169H180.859V147.37H174.923V136.699Z" fill="white"/>
<path d="M192.129 141.901C192.129 145.569 189.928 147.503 187.194 147.503C184.393 147.503 182.392 145.302 182.392 142.101C182.392 138.7 184.526 136.499 187.328 136.499C190.262 136.499 192.129 138.767 192.129 141.901ZM183.86 142.101C183.86 144.369 185.127 146.436 187.261 146.436C189.462 146.436 190.662 144.435 190.662 142.034C190.662 139.9 189.528 137.699 187.261 137.699C184.993 137.633 183.86 139.767 183.86 142.101Z" fill="white"/>
<path d="M201.533 143.968L200.399 147.303H198.999L202.6 136.632H204.267L207.935 147.303H206.468L205.334 143.968H201.533ZM205.067 142.901L204 139.834C203.8 139.167 203.6 138.5 203.467 137.9H203.4C203.267 138.567 203.067 139.167 202.867 139.834L201.8 142.901H205.067Z" fill="white"/>
<path d="M210.803 136.699H212.137V146.169H216.739V147.37H210.803V136.699Z" fill="white"/>
<path d="M220.14 137.833H216.872V136.699H224.808V137.833H221.54V147.37H220.14V137.833Z" fill="white"/>
<path d="M235.946 141.901C235.946 145.569 233.745 147.503 231.011 147.503C228.209 147.503 226.209 145.302 226.209 142.101C226.209 138.7 228.343 136.499 231.144 136.499C234.078 136.499 235.946 138.767 235.946 141.901ZM227.676 142.101C227.676 144.369 228.943 146.436 231.077 146.436C233.278 146.436 234.478 144.435 234.478 142.034C234.478 139.9 233.345 137.699 231.077 137.699C228.81 137.633 227.676 139.767 227.676 142.101Z" fill="white"/>
<path d="M245.016 136.699V141.167H250.151V136.699H251.552V147.37H250.151V142.368H245.016V147.37H243.615V136.699H245.016Z" fill="white"/>
<path d="M260.755 142.368H256.554V146.169H261.222V147.37H255.22V136.699H260.955V137.833H256.554V141.234H260.755V142.368Z" fill="white"/>
<path d="M265.957 143.968L264.823 147.303H263.423L267.024 136.632H268.691L272.359 147.303H270.892L269.758 143.968H265.957ZM269.492 142.901L268.424 139.834C268.224 139.167 268.024 138.5 267.891 137.9H267.824C267.691 138.567 267.491 139.167 267.291 139.834L266.224 142.901H269.492Z" fill="white"/>
<path d="M275.227 136.699H276.628V146.169H281.163V147.37H275.227V136.699Z" fill="white"/>
<path d="M284.564 137.833H281.363V136.699H289.232V137.833H285.965V147.37H284.564V137.833Z" fill="white"/>
<path d="M293.1 136.699V141.167H298.236V136.699H299.636V147.37H298.236V142.368H293.1V147.37H291.7V136.699H293.1Z" fill="white"/>
<path d="M315.375 146.97C314.842 147.236 313.841 147.503 312.574 147.503C309.573 147.503 307.306 145.636 307.306 142.101C307.306 138.767 309.573 136.499 312.908 136.499C314.242 136.499 315.109 136.766 315.442 136.966L315.109 138.1C314.575 137.833 313.841 137.633 312.974 137.633C310.507 137.633 308.84 139.233 308.84 142.034C308.84 144.635 310.373 146.303 312.908 146.303C313.775 146.303 314.575 146.103 315.175 145.836L315.375 146.97Z" fill="white"/>
<path d="M320.177 143.968L319.043 147.303H317.643L321.244 136.632H322.911L326.579 147.303H325.112L323.978 143.968H320.177ZM323.645 142.901L322.578 139.834C322.378 139.167 322.178 138.5 322.044 137.9H321.978C321.844 138.567 321.644 139.167 321.444 139.834L320.377 142.901H323.645Z" fill="white"/>
<path d="M329.381 136.833C330.048 136.699 331.048 136.632 332.048 136.632C333.515 136.632 334.449 136.899 335.116 137.499C335.65 137.966 335.983 138.7 335.983 139.5C335.983 140.901 335.116 141.834 333.982 142.235V142.301C334.783 142.568 335.316 143.368 335.583 144.435C335.916 145.903 336.183 146.97 336.383 147.37H334.983C334.783 147.103 334.583 146.169 334.249 144.835C333.916 143.368 333.382 142.835 332.115 142.768H330.848V147.37H329.447V136.833H329.381ZM330.781 141.701H332.182C333.649 141.701 334.583 140.901 334.583 139.7C334.583 138.3 333.582 137.699 332.115 137.699C331.448 137.699 330.981 137.766 330.781 137.833V141.701Z" fill="white"/>
<path d="M344.653 142.368H340.518V146.169H345.187V147.37H339.184V136.699H344.92V137.833H340.518V141.234H344.653V142.368Z" fill="white"/>
<path d="M352.656 145.636C353.256 146.036 354.19 146.303 355.124 146.303C356.524 146.303 357.324 145.569 357.324 144.502C357.324 143.502 356.724 142.968 355.324 142.368C353.59 141.768 352.523 140.834 352.523 139.367C352.523 137.699 353.923 136.499 355.991 136.499C357.058 136.499 357.858 136.766 358.325 137.033L357.925 138.166C357.591 137.966 356.858 137.633 355.924 137.633C354.457 137.633 353.923 138.5 353.923 139.233C353.923 140.234 354.59 140.701 356.057 141.301C357.858 141.968 358.792 142.901 358.792 144.435C358.792 146.103 357.591 147.503 355.057 147.503C354.056 147.503 352.923 147.236 352.323 146.836L352.656 145.636Z" fill="white"/>
<path d="M364.26 147.37V142.835L360.859 136.699H362.459L363.993 139.634C364.394 140.434 364.727 141.101 365.06 141.834H365.127C365.394 141.167 365.794 140.434 366.194 139.634L367.728 136.699H369.329L365.727 142.835V147.37H364.26Z" fill="white"/>
<path d="M371.33 145.636C371.93 146.036 372.863 146.303 373.797 146.303C375.198 146.303 375.998 145.569 375.998 144.502C375.998 143.502 375.398 142.968 373.997 142.368C372.263 141.768 371.196 140.834 371.196 139.367C371.196 137.699 372.597 136.499 374.664 136.499C375.731 136.499 376.531 136.766 376.998 137.033L376.598 138.166C376.265 137.966 375.531 137.633 374.597 137.633C373.13 137.633 372.597 138.5 372.597 139.233C372.597 140.234 373.264 140.701 374.731 141.301C376.531 141.968 377.465 142.901 377.465 144.435C377.465 146.103 376.265 147.503 373.73 147.503C372.73 147.503 371.596 147.236 370.996 146.836L371.33 145.636Z" fill="white"/>
<path d="M382.667 137.833H379.399V136.699H387.269V137.833H384.001V147.37H382.667V137.833Z" fill="white"/>
<path d="M395.272 142.368H391.137V146.169H395.739V147.37H389.736V136.699H395.472V137.833H391.137V141.234H395.272V142.368Z" fill="white"/>
<path d="M407.81 142.635C407.743 141.167 407.61 139.367 407.677 138.033H407.61C407.21 139.3 406.81 140.634 406.276 142.101L404.409 147.303H403.342L401.608 142.235C401.074 140.701 400.674 139.367 400.34 138.1C400.274 139.433 400.207 141.234 400.14 142.835L399.874 147.436H398.54L399.273 136.766H401.007L402.808 141.901C403.275 143.235 403.608 144.369 403.875 145.502H403.942C404.209 144.435 404.609 143.235 405.076 141.901L406.943 136.766H408.677L409.344 147.436H408.01L407.81 142.635Z" fill="white"/>
<path d="M120.369 135.299C117.768 135.299 115.634 137.433 115.634 140.034C115.634 143.568 120.369 148.17 120.369 148.17C120.369 148.17 125.104 143.502 125.104 140.034C125.104 137.433 122.97 135.299 120.369 135.299ZM120.369 142.435C119.036 142.435 117.968 141.367 117.968 140.034C117.968 138.7 119.036 137.633 120.369 137.633C121.703 137.633 122.77 138.7 122.77 140.034C122.77 141.301 121.703 142.435 120.369 142.435Z" fill="white"/>
</svg>
